<svg width="24" height="24" viewBox="0 0 24 24" fill="none" xmlns="http://www.w3.org/2000/svg">
<g clip-path="url(#clip0_427_33)">
<path d="M4.31992 11.1175H4.76999V10.5668C4.76999 10.5668 4.1445 9.19213 4.72643 7.08249C4.72643 6.63646 4.72719 0.981066 4.72719 0.981066H4.72498C4.72498 0.976275 4.72643 0.97117 4.72574 0.966064C4.72719 0.546759 4.38661 0.20694 3.96844 0.20694C3.54989 0.207696 3.21077 0.547515 3.21007 0.966064C3.21007 0.971926 3.21152 0.976339 3.21152 0.981822H3.21007C3.21007 0.981822 3.21007 6.55231 3.21083 7.06824C3.64949 9.62057 3.11344 10.5675 3.11344 10.5675V11.1176H3.5642V14.2133L1.23987 16.2229L1.24062 22.8004C1.24062 22.8004 1.49402 23.7906 3.70363 23.7906C5.91287 23.7906 6.62472 22.8004 6.62472 22.8004V16.2229L4.32068 14.2162V11.1175H4.31992ZM3.76037 17.2387V17.6664H3.3323L3.33154 17.2387H3.76037ZM3.32719 18.639H3.75602L3.75532 19.0667H3.32719V18.639ZM3.3374 19.8006V19.3721L3.76509 19.3714L3.76585 19.8006H3.3374ZM3.75816 20.0481V20.4758H3.33009V20.0466L3.75816 20.0481ZM2.55086 17.2387H2.97968V17.6664H2.55086V17.2387ZM2.54645 18.639H2.97451L2.97527 19.0667H2.54645V18.639ZM2.55672 19.8006V19.3721H2.98447V19.8006H2.55672ZM2.97672 20.0467V20.4759H2.54941L2.54796 20.0467H2.97672ZM2.21873 17.2387L2.21797 17.6664H1.78877V17.2387H2.21873ZM2.21325 18.639V19.0667H1.78512V18.639H2.21325ZM1.79318 19.8006L1.79394 19.3721L2.22239 19.3714V19.7991L1.79318 19.8006ZM2.21539 20.0467V20.4751H1.78657V20.0467H2.21539ZM1.78222 21.4484H2.21104V21.8761H1.78291L1.78222 21.4484ZM2.22018 22.6084H1.79243V22.1808H2.22087L2.22018 22.6084ZM2.22535 21.2096H1.79653V20.7812H2.22535V21.2096ZM2.2268 18.4003H1.79943V17.9718H2.2268V18.4003ZM2.54386 21.4484H2.97231V21.8761H2.54311L2.54386 21.4484ZM2.55382 22.6084V22.1808H2.98227L2.98302 22.6084H2.55382ZM2.98737 21.2096H2.55817V20.7812H2.98737V21.2096ZM2.56151 18.4003V17.9718H2.98882L2.98958 18.4003H2.56151ZM3.32461 21.4484H3.75305V21.8761H3.32536L3.32461 21.4484ZM3.76257 22.6084H3.3345V22.1808H3.76371L3.76257 22.6084ZM3.76806 21.2096H3.33961V20.7812H3.76806V21.2096ZM3.77026 18.4003H3.34219V17.9718H3.77026V18.4003ZM3.57618 1.06118C3.57618 0.826442 3.76661 0.636015 4.00204 0.636772C4.23747 0.636015 4.42721 0.826443 4.42721 1.06194C4.42866 1.29668 4.23678 2.09608 4.0028 2.09608C3.76736 2.09608 3.57694 1.29668 3.57618 1.06118ZM4.09949 19.8006V19.3714L4.52756 19.3721V19.8006H4.09949ZM4.52018 20.0481V20.4758H4.09212V20.0481H4.52018ZM4.08884 19.0667L4.08959 18.639H4.51804V19.0667H4.08884ZM4.08739 21.4484H4.51508V21.8761H4.08663L4.08739 21.4484ZM4.09653 22.6084V22.1808H4.52535V22.6084H4.09653ZM4.53008 21.2096H4.10088V20.7812H4.52932V21.2096H4.53008ZM5.31524 22.6084H4.88749V22.1808H5.31524V22.6084ZM4.89158 21.2096V20.7812H5.32041V21.2096H4.89158ZM5.31082 20.0481V20.4758H4.88314L4.88238 20.0466L5.31082 20.0481ZM4.88862 19.3721H5.31744V19.8006H4.89013L4.88862 19.3721ZM5.64882 22.6084V22.1808H6.07726L6.07802 22.6084H5.64882ZM5.65323 21.2096V20.7812H6.08243V21.2096H5.65323ZM6.07178 20.0481V20.475H5.6444V20.0481H6.07178ZM5.65172 19.8006V19.3721H6.07947V19.8006H5.65172ZM6.08457 18.4003H5.65651V17.9718H6.08457V18.4003ZM5.64585 17.2387H6.07468V17.6664H5.64585V17.2387ZM5.6415 18.639H6.07033V19.0667L5.6415 19.0674V18.639ZM5.63854 21.4484H6.06736V21.8761H5.63854V21.4484ZM5.32249 18.4003H4.89442V17.9718H5.32179L5.32249 18.4003ZM4.88383 17.2372L5.31303 17.2387V17.6664H4.88383V17.2372ZM4.88017 18.639H5.30824V19.0674L4.88017 19.0667V18.639ZM4.87797 21.4484H5.3061V21.8761H4.87797V21.4484ZM4.53229 18.4003H4.10308V17.9718H4.53229V18.4003ZM4.52239 17.2387V17.6664H4.09432V17.2387H4.52239Z" fill="#214E4B"/>
<path d="M13.037 16.9669V9.64061H13.434L13.4354 9.15468C13.4354 9.15468 12.8832 7.93969 13.3951 6.0769C13.3951 5.68394 13.3951 0.686186 13.3951 0.686186H13.3937C13.3937 0.681774 13.3951 0.67629 13.3951 0.672634C13.3951 0.302748 13.0956 0.00213623 12.725 0.00213623C12.3548 0.00213623 12.0556 0.301361 12.0556 0.672634C12.0556 0.677046 12.0571 0.681018 12.0571 0.686186H12.0556C12.0556 0.686186 12.0556 5.60741 12.0556 6.06328C12.4441 8.31828 11.9696 9.15537 11.9696 9.15537V9.64055H12.3676V16.9676C10.5791 17.1361 9.17883 18.6404 9.17883 20.4735C9.17883 22.4195 10.7567 23.9955 12.7016 23.9955C14.6461 23.9955 16.2243 22.418 16.2243 20.4728C16.2244 18.6404 14.8255 17.1362 13.037 16.9669ZM11.8301 19.8577C11.8294 19.7361 11.9283 19.638 12.0491 19.638C12.1714 19.638 12.2695 19.7362 12.2695 19.8577C12.2695 19.9792 12.1714 20.0774 12.0491 20.0774C11.9282 20.0774 11.8294 19.9807 11.8301 19.8577ZM11.9396 20.5651C11.9389 20.686 11.8404 20.7848 11.7191 20.7848C11.5975 20.7848 11.4979 20.6867 11.4994 20.5651C11.498 20.4428 11.5976 20.3447 11.7191 20.3447C11.8404 20.3447 11.9389 20.4436 11.9396 20.5651ZM11.9897 18.4236C12.1099 18.4236 12.2095 18.5219 12.2095 18.6434C12.2095 18.7649 12.1099 18.8631 11.9897 18.8631C11.8675 18.8631 11.7693 18.7649 11.7693 18.6434C11.7686 18.5218 11.8675 18.4222 11.9897 18.4236ZM11.5855 17.6261C11.7071 17.6261 11.8059 17.7242 11.8059 17.8458C11.8052 17.9673 11.7071 18.0662 11.5855 18.0662C11.4647 18.0655 11.3651 17.9673 11.3651 17.8458C11.3651 17.7242 11.4647 17.6261 11.5855 17.6261ZM11.3651 18.8177C11.4873 18.817 11.5855 18.9159 11.5855 19.0374C11.5855 19.1589 11.4873 19.2571 11.3658 19.2571C11.2443 19.2571 11.1446 19.1589 11.1446 19.038C11.1446 18.9158 11.2442 18.817 11.3651 18.8177ZM11.2234 19.7332C11.2226 19.8547 11.1245 19.9528 11.0022 19.9528C10.8813 19.9528 10.7825 19.8547 10.7817 19.7332C10.7817 19.6115 10.8813 19.5135 11.0029 19.5135C11.1245 19.5135 11.2234 19.6101 11.2234 19.7332ZM11.0029 20.4736C11.0029 20.5944 10.9047 20.6933 10.7817 20.6933C10.6616 20.6933 10.562 20.5951 10.562 20.4736C10.562 20.3513 10.6616 20.2531 10.7817 20.2531C10.9029 20.2539 11.0022 20.3513 11.0029 20.4736ZM10.7389 18.2875C10.859 18.2875 10.9585 18.3871 10.9585 18.5087C10.9585 18.6288 10.8603 18.7284 10.7389 18.7284C10.6173 18.7269 10.5184 18.6288 10.5191 18.5087C10.5184 18.3871 10.6173 18.2875 10.7389 18.2875ZM10.1269 19.2337C10.2492 19.2337 10.3474 19.3333 10.3481 19.4533C10.3474 19.575 10.2493 19.6731 10.1269 19.6731C10.0061 19.6731 9.90726 19.5764 9.90726 19.4533C9.90726 19.3319 10.0054 19.2337 10.1269 19.2337ZM9.66042 20.527C9.66042 20.4048 9.75926 20.3074 9.88085 20.3074C10.0024 20.3066 10.1013 20.4056 10.1006 20.5264C10.1006 20.6487 10.0024 20.7476 9.88085 20.7476C9.75926 20.7476 9.66042 20.6487 9.66042 20.527ZM10.1383 21.9201C10.0167 21.9201 9.91816 21.8219 9.91816 21.7004C9.91816 21.5788 10.0167 21.4807 10.1383 21.4807C10.2595 21.4807 10.3588 21.5788 10.3588 21.7004C10.3595 21.8219 10.2595 21.9201 10.1383 21.9201ZM10.7217 22.7007C10.6008 22.7007 10.502 22.6026 10.502 22.4811C10.5012 22.3595 10.6008 22.2599 10.7217 22.2599C10.8433 22.2613 10.9421 22.358 10.9421 22.4811C10.9429 22.6026 10.8433 22.7007 10.7217 22.7007ZM10.8663 21.3993C10.7447 21.3993 10.6466 21.3005 10.6466 21.1796C10.6466 21.0588 10.7448 20.9592 10.8663 20.96C10.9879 20.9592 11.086 21.0588 11.086 21.1804C11.0868 21.3004 10.9872 21.4001 10.8663 21.3993ZM11.1446 21.9201C11.1446 21.7985 11.2435 21.7004 11.3651 21.7004C11.4873 21.7004 11.5855 21.7985 11.5855 21.9201C11.5855 22.0431 11.4873 22.1397 11.3651 22.1412C11.2435 22.1397 11.1446 22.0431 11.1446 21.9201ZM11.5855 23.3453C11.4639 23.3445 11.3651 23.2471 11.3651 23.1248C11.3651 23.004 11.4647 22.9051 11.5855 22.9051C11.7071 22.9059 11.8052 23.0033 11.8052 23.1248C11.8059 23.2471 11.7071 23.346 11.5855 23.3453ZM11.9389 22.5602C11.818 22.5602 11.7191 22.4613 11.7191 22.3397C11.7191 22.2181 11.818 22.1201 11.9389 22.1201C12.0604 22.1201 12.16 22.2182 12.16 22.3397C12.16 22.462 12.0604 22.5602 11.9389 22.5602ZM12.0498 21.4806C11.9282 21.4806 11.8294 21.3818 11.8294 21.261C11.8294 21.1393 11.9282 21.0412 12.049 21.0412C12.1713 21.0412 12.2695 21.1394 12.2695 21.261C12.2695 21.3818 12.1714 21.4806 12.0498 21.4806ZM14.6161 19.6746C14.7361 19.6732 14.8357 19.7728 14.8357 19.8943C14.8357 20.0158 14.7361 20.114 14.6145 20.114C14.4937 20.114 14.3956 20.0158 14.3949 19.8943C14.3956 19.772 14.4938 19.6731 14.6161 19.6746ZM13.8735 17.6613C13.995 17.6606 14.0946 17.7601 14.0946 17.8809C14.0946 18.0026 13.995 18.1007 13.8735 18.1014C13.7519 18.1007 13.6538 18.0026 13.653 17.8809C13.6537 17.7601 13.7519 17.6606 13.8735 17.6613ZM13.5102 18.5086C13.6318 18.5086 13.7299 18.6068 13.7314 18.7283C13.7299 18.8491 13.6318 18.948 13.5102 18.948C13.3886 18.948 13.2904 18.8491 13.2904 18.7283C13.2904 18.6068 13.3886 18.5086 13.5102 18.5086ZM13.7797 20.3074C13.9013 20.3074 14.0008 20.4048 13.9993 20.527C14.0008 20.6487 13.9012 20.7475 13.7797 20.7475C13.6581 20.7468 13.56 20.6487 13.56 20.527C13.56 20.4055 13.6581 20.3066 13.7797 20.3074ZM13.4487 19.5999C13.5703 19.5999 13.6692 19.6995 13.6684 19.8211C13.6692 19.9419 13.5702 20.0407 13.4487 20.0407C13.3271 20.0407 13.229 19.9419 13.229 19.8211C13.2289 19.6995 13.3271 19.5999 13.4487 19.5999ZM12.7558 0.381541C12.963 0.381541 13.1322 0.549654 13.1322 0.757226C13.1322 0.964484 12.963 1.6716 12.7558 1.6716C12.5493 1.6716 12.3805 0.965996 12.3805 0.757226C12.3805 0.549654 12.5493 0.381541 12.7558 0.381541ZM12.7485 18.7196C12.6269 18.7196 12.5273 18.6214 12.5273 18.4999C12.5273 18.3768 12.6269 18.2794 12.7485 18.2794C12.8686 18.2787 12.9682 18.3776 12.9682 18.4991C12.9682 18.6215 12.8686 18.7188 12.7485 18.7196ZM12.9228 19.5566C12.9228 19.6782 12.8247 19.7764 12.7032 19.7764C12.5816 19.7764 12.4827 19.6782 12.4827 19.5566C12.4827 19.4344 12.5816 19.337 12.7032 19.3362C12.8247 19.3362 12.9228 19.4344 12.9228 19.5566ZM12.4827 17.5983C12.4827 17.4774 12.5815 17.3793 12.7031 17.3786C12.8247 17.3794 12.9228 17.4774 12.9235 17.599C12.9228 17.7206 12.8247 17.8195 12.7031 17.8188C12.5816 17.8195 12.4827 17.7206 12.4827 17.5983ZM12.747 20.2114C12.9214 20.2114 13.0635 20.3528 13.0635 20.527C13.0635 20.7014 12.9221 20.8427 12.7485 20.842C12.5742 20.842 12.4321 20.7014 12.4321 20.5263C12.4321 20.3528 12.5727 20.2106 12.747 20.2114ZM12.7031 23.565C12.5815 23.565 12.4827 23.4668 12.4827 23.3453C12.4827 23.2244 12.5823 23.1248 12.7031 23.1248C12.8247 23.1256 12.9228 23.2237 12.9228 23.3453C12.9228 23.4668 12.8247 23.5657 12.7031 23.565ZM12.7031 22.7007C12.5815 22.7007 12.4827 22.6026 12.4827 22.4811C12.4827 22.358 12.5815 22.2614 12.7031 22.2599C12.8247 22.2599 12.9228 22.358 12.9228 22.4811C12.9228 22.6026 12.8247 22.7007 12.7031 22.7007ZM12.8437 21.7003C12.7221 21.7018 12.6225 21.6022 12.6225 21.4806C12.6225 21.3591 12.7207 21.261 12.8437 21.261C12.9646 21.261 13.0634 21.3591 13.0634 21.4806C13.0634 21.6022 12.9646 21.7003 12.8437 21.7003ZM13.4487 21.0024C13.5703 21.0024 13.6692 21.0998 13.6684 21.2221C13.6692 21.3444 13.5702 21.4425 13.4487 21.4425C13.3271 21.4425 13.229 21.3444 13.229 21.2221C13.2289 21.1005 13.3271 21.0024 13.4487 21.0024ZM13.2289 22.3397C13.2289 22.2181 13.3271 22.1201 13.4486 22.1201C13.5701 22.1201 13.6691 22.2174 13.6683 22.3397C13.6691 22.4613 13.5687 22.5602 13.4486 22.5602C13.3271 22.5602 13.2289 22.4613 13.2289 22.3397ZM13.7812 23.42C13.6581 23.42 13.5592 23.3218 13.56 23.1987C13.5592 23.0787 13.6581 22.9805 13.7812 22.9805C13.9013 22.9805 14.0008 23.0787 14.0008 23.2001C13.9994 23.3219 13.9013 23.42 13.7812 23.42ZM14.0946 22.1397C13.9716 22.1397 13.8735 22.0416 13.8735 21.9201C13.8749 21.7985 13.9716 21.7004 14.0946 21.7004C14.2155 21.7004 14.3143 21.7985 14.3143 21.9201C14.3143 22.0431 14.2155 22.1397 14.0946 22.1397ZM14.0946 19.4139C13.9716 19.4139 13.875 19.315 13.8735 19.1942C13.8749 19.0726 13.9716 18.9738 14.0946 18.9738C14.2155 18.973 14.3143 19.0726 14.3143 19.1934C14.3143 19.315 14.2147 19.4139 14.0946 19.4139ZM14.3949 21.3635C14.3956 21.2425 14.4937 21.1437 14.6145 21.1437C14.7361 21.1437 14.8357 21.2425 14.835 21.3635C14.8357 21.485 14.7361 21.5838 14.6145 21.5838C14.4938 21.5839 14.3956 21.485 14.3949 21.3635ZM14.7391 22.7798C14.6175 22.7798 14.5179 22.6824 14.5187 22.5602C14.5179 22.4386 14.6175 22.3397 14.7391 22.3397C14.8599 22.3397 14.9588 22.4386 14.9595 22.5602C14.9588 22.6818 14.8599 22.7798 14.7391 22.7798ZM14.7391 20.8427C14.6175 20.842 14.5179 20.7439 14.5187 20.623C14.5187 20.5008 14.6175 20.4026 14.7391 20.4026C14.8599 20.4019 14.9588 20.5008 14.9595 20.6223C14.9588 20.7446 14.8599 20.842 14.7391 20.8427ZM14.794 18.7284C14.6717 18.7284 14.5721 18.6295 14.5736 18.5087C14.5721 18.3871 14.6717 18.2875 14.794 18.2875C14.9148 18.2875 15.0131 18.3871 15.0144 18.5087C15.0144 18.6295 14.9148 18.7284 14.794 18.7284ZM15.4393 21.7567C15.3191 21.7567 15.2196 21.6579 15.2196 21.5363C15.2196 21.4147 15.3191 21.3166 15.4393 21.3166C15.5623 21.3166 15.6605 21.4148 15.6605 21.5363C15.6605 21.6578 15.5623 21.7567 15.4393 21.7567ZM15.8172 20.4319C15.8172 20.5527 15.7176 20.6515 15.5975 20.6515C15.4759 20.6508 15.3778 20.5527 15.3778 20.4319C15.3778 20.3096 15.476 20.2106 15.5975 20.2114C15.7176 20.2114 15.8172 20.3096 15.8172 20.4319ZM15.5974 19.4131C15.596 19.5354 15.4993 19.6336 15.3777 19.6336C15.2547 19.635 15.1565 19.5354 15.1565 19.4139C15.1565 19.2923 15.2547 19.1942 15.3763 19.1934C15.4994 19.1934 15.596 19.2923 15.5974 19.4131Z" fill="#214E4B"/>
<path d="M22.7542 18.579C22.7513 18.1483 20.9533 16.6858 20.727 16.5034V9.88198H21.2294V9.38357C21.2294 9.38357 20.664 8.13706 21.1899 6.22667C21.1899 5.82351 21.1899 0.699747 21.1899 0.699747H21.1885C21.1885 0.694263 21.1914 0.689851 21.1914 0.685438C21.1899 0.306853 20.8822 1.39204e-06 20.5044 1.39204e-06C20.1235 -0.000755022 19.816 0.306853 19.8174 0.686258C19.8174 0.69067 19.8174 0.695083 19.8174 0.700567H19.816C19.816 0.700567 19.8174 5.74705 19.8174 6.21501C20.2144 8.52712 19.7281 9.38514 19.7281 9.38514V9.88387H20.2319V16.4874C20.2319 16.4874 18.1857 18.1205 18.182 18.5804C18.1798 19.0418 18.1666 20.8318 18.182 21.031C18.1959 21.2302 18.1072 23.9993 19.3443 23.9993C19.6973 23.9993 20.3322 23.9993 20.4567 23.9986C20.4706 23.9993 20.4793 24 20.4793 24C20.601 23.9992 21.2249 23.9992 21.5911 24C22.76 24 22.7395 21.2302 22.7541 21.031C22.7667 20.8303 22.7557 19.0403 22.7542 18.579ZM19.0674 23.3423H18.7906V18.7182H19.0674V23.3423ZM19.8606 23.4463H19.5845V19.5237H19.8606V23.4463ZM20.1485 0.772678C20.1485 0.559559 20.3213 0.387096 20.5337 0.387096C20.746 0.387096 20.9196 0.558865 20.9196 0.771607C20.9196 0.985483 20.7475 1.71019 20.5337 1.71019C20.3213 1.71082 20.1485 0.98542 20.1485 0.772678ZM20.3403 23.4463V20.0634H20.6165L20.6172 23.4463H20.3403ZM21.3327 23.4463H21.0566V19.5237H21.3334L21.3327 23.4463ZM22.0467 23.2911H21.7699V18.6654L22.0467 18.6668V23.2911Z" fill="#214E4B"/>
</g>
<defs>
<clipPath id="clip0_427_33">
<rect width="24" height="24" fill="white"/>
</clipPath>
</defs>
</svg>
