<svg width="67" height="69" viewBox="0 0 67 69" fill="none" xmlns="http://www.w3.org/2000/svg">
<path fill-rule="evenodd" clip-rule="evenodd" d="M30.3783 11.0416C43.4362 9.00297 54.681 18.6159 56.7933 31.1053C58.937 43.7818 49.2174 55.9981 36.9429 57.7183C23.8597 59.5528 12.2289 50.7439 10.1442 38.009C7.933 24.5069 17.4347 13.0625 30.3783 11.0416ZM50.3138 9.32676C53.0905 7.89429 56.4365 5.558 59.2608 8.96691C61.8717 12.1188 60.2452 14.8157 58.4628 17.4489C55.5196 14.294 53.6575 12.3505 50.3138 9.32676ZM8.43019 17.7957C7.03685 14.8364 4.78419 12.5899 7.64298 9.21474C10.3046 6.0736 13.4749 7.16003 16.4127 9.27765C14.6756 11.8019 10.8724 13.4323 8.43019 17.7957ZM4.04533 21.5821L6.7031 20.3975C3.01797 30.7293 0.990889 39.0279 7.88006 50.3073C9.70153 53.2897 12.1161 55.0237 13.5992 57.3101C10.412 60.9929 7.42125 63.4197 7.70666 66.6552C9.18977 67.7025 10.0644 68.6693 11.8199 69C14.5299 67.5913 16.5692 62.941 19.1426 60.9722C24.9944 62.9202 26.8504 64.5453 33.7879 64.4716C37.2183 64.4356 45.3896 62.9417 47.7504 60.7627C49.5458 62.7046 52.9808 67.7961 54.8414 68.8826C56.8708 68.792 58.2196 67.5591 59.4296 66.0783C59.969 64.4524 53.2378 57.1029 53.2363 57.1014C57.7102 53.6464 61.2679 47.0243 62.6858 41.3665C65.5093 30.1002 60.9733 24.981 60.4193 20.4527C61.7405 21.3995 61.9362 21.4977 63.5144 21.5315C67.7297 16.509 68.5292 8.95157 63.6387 4.14088C59.4257 -0.00382453 49.5443 -0.64755 46.4446 4.70021C46.6134 6.8163 46.7829 6.0828 47.4428 7.73394C37.1462 2.67082 29.4376 3.52017 19.2684 7.77844C20.4638 5.87948 20.5306 6.48024 20.5006 4.08948C14.6388 0.212541 8.25602 -1.0166 2.99572 4.56824C-1.09297 8.90784 -1.23185 19.3786 4.04533 21.5821Z" fill="#FFFEFE"/>
<path fill-rule="evenodd" clip-rule="evenodd" d="M43.8574 44.1202C44.8924 43.3951 46.0633 41.9542 46.3387 40.6322C46.7269 38.7609 45.3359 38.3742 44.0139 37.5041C41.5764 35.899 39.1142 34.1067 36.6728 32.5669C36.6728 17.7765 38.4759 15.8752 30.9591 17.0921C29.9617 18.8108 29.7476 34.3308 30.7159 36.1361C30.9246 36.5259 40.8482 44.2851 43.8574 44.1202Z" fill="#FFFEFE"/>
</svg>
