<svg width="60" height="60" viewBox="0 0 60 60" fill="none" xmlns="http://www.w3.org/2000/svg">
<path d="M49.375 19.375C49.03 19.375 48.75 19.095 48.75 18.75V7.5H42.5V12.5C42.5 12.845 42.22 13.125 41.875 13.125C41.53 13.125 41.25 12.845 41.25 12.5V7.5C41.25 6.81125 41.81 6.25 42.5 6.25H48.75C49.44 6.25 50 6.81125 50 7.5V18.75C50 19.095 49.72 19.375 49.375 19.375Z" fill="#FF6F31"/>
<path d="M53.6425 31.8663C53.35 31.8663 53.07 31.7625 52.8425 31.5713L30.3425 12.5363C30.1188 12.345 29.7913 12.3438 29.5625 12.5363L7.15626 31.5488C6.90251 31.765 6.58751 31.87 6.24501 31.8388C5.91251 31.81 5.61126 31.6513 5.39876 31.3938L3.41376 29C2.97626 28.4763 3.04376 27.6875 3.56501 27.245L28.8138 5.82376C29.5075 5.23376 30.5175 5.23376 31.2113 5.82376L56.4363 27.2675H56.4375C56.9538 27.71 57.0225 28.495 56.5888 29.0213L54.5988 31.4175C54.385 31.675 54.085 31.8325 53.7525 31.8613C53.7163 31.865 53.6788 31.8663 53.6425 31.8663ZM29.955 11.1413C30.38 11.1413 30.805 11.2888 31.1513 11.5825L53.6525 30.6175L56.03 27.7425L55.625 28.2188L30.4013 6.77626C30.1763 6.58626 29.8488 6.58251 29.6213 6.77626L4.37501 28.1975L6.36251 30.595L28.755 11.5838C29.1025 11.2888 29.5288 11.1413 29.955 11.1413Z" fill="#FF6F31"/>
<path d="M50 56.25H30.625C30.28 56.25 30 55.97 30 55.625C30 55.28 30.28 55 30.625 55H50V33.2313L30.4025 16.7788C30.17 16.5838 29.8312 16.5838 29.5963 16.78L10 33.2613V55H14.4125C14.7575 55 15.0375 55.28 15.0375 55.625C15.0375 55.97 14.7575 56.25 14.4125 56.25H10C9.31 56.25 8.75 55.6888 8.75 55V32.97C8.75 32.7863 8.83125 32.61 8.9725 32.4913L28.7925 15.8225C29.4937 15.2338 30.5075 15.235 31.2062 15.8213L51.0262 32.4625C51.1688 32.58 51.25 32.7563 51.25 32.9413V55C51.25 55.6888 50.69 56.25 50 56.25Z" fill="#FF6F31"/>
<path d="M30 26.25C28.6212 26.25 27.5 25.1288 27.5 23.75C27.5 22.3712 28.6212 21.25 30 21.25C31.3788 21.25 32.5 22.3712 32.5 23.75C32.5 25.1288 31.3788 26.25 30 26.25ZM30 22.5C29.31 22.5 28.75 23.0612 28.75 23.75C28.75 24.4388 29.31 25 30 25C30.69 25 31.25 24.4388 31.25 23.75C31.25 23.0612 30.69 22.5 30 22.5Z" fill="#FF6F31"/>
<path d="M43.75 48.75H33.75C33.06 48.75 32.5 48.1888 32.5 47.5V40.625C32.5 40.28 32.78 40 33.125 40C33.47 40 33.75 40.28 33.75 40.625V47.5H43.75V38.75H33.125C32.78 38.75 32.5 38.47 32.5 38.125C32.5 37.78 32.78 37.5 33.125 37.5H43.75C44.44 37.5 45 38.0612 45 38.75V47.5C45 48.1888 44.44 48.75 43.75 48.75Z" fill="#FF6F31"/>
<path d="M28.125 56.25C27.78 56.25 27.5 55.97 27.5 55.625V38.75H17.5V55.625C17.5 55.97 17.22 56.25 16.875 56.25C16.53 56.25 16.25 55.97 16.25 55.625V38.75C16.25 38.0612 16.81 37.5 17.5 37.5H27.5C28.19 37.5 28.75 38.0612 28.75 38.75V55.625C28.75 55.97 28.47 56.25 28.125 56.25Z" fill="#FF6F31"/>
<path d="M25.625 47.5C25.28 47.5 25 47.22 25 46.875V45.625C25 45.28 25.28 45 25.625 45C25.97 45 26.25 45.28 26.25 45.625V46.875C26.25 47.22 25.97 47.5 25.625 47.5Z" fill="#FF6F31"/>
<path d="M28.125 56.25H16.875C16.53 56.25 16.25 55.97 16.25 55.625C16.25 55.28 16.53 55 16.875 55H28.125C28.47 55 28.75 55.28 28.75 55.625C28.75 55.97 28.47 56.25 28.125 56.25Z" fill="#FF6F31"/>
</svg>
