<svg width="70" height="68" viewBox="0 0 70 68" fill="none" xmlns="http://www.w3.org/2000/svg">
<path fill-rule="evenodd" clip-rule="evenodd" d="M9.51717 52.9671C9.51717 51.2804 9.72478 46.1661 9.31583 44.8549C8.63726 42.6764 5.75092 41.6767 3.83784 42.9697C0.950109 44.9197 2.15467 55.4598 2.1477 58.9251C2.12889 67.7764 4.90794 65.9908 12.7741 65.9908C17.9637 65.9908 26.3413 68.0028 25.5303 61.0457C23.3985 57.1987 19.1648 58.9717 15.0913 58.4889C17.2245 55.6235 22.6691 50.7001 25.4391 47.9315L46.8257 26.3818C49.0683 24.1413 57.4083 17.8761 54.4348 14.199C50.7208 9.60648 44.3999 18.4529 42.0862 20.7666C36.6653 26.1881 11.8768 51.9527 9.51717 52.9671Z" fill="#FFFEFE"/>
<path fill-rule="evenodd" clip-rule="evenodd" d="M53.61 46.5346C62.5296 44.3972 65.34 58.4673 56.5765 60.294C47.4228 62.2015 44.2271 48.7828 53.61 46.5346ZM51.0992 39.5915C32.1418 45.1636 41.3401 72.8656 59.1918 67.2538C76.9996 61.656 69.1822 34.2759 51.0992 39.5915Z" fill="#FFFEFE"/>
<path fill-rule="evenodd" clip-rule="evenodd" d="M11.8894 7.96368C20.5777 4.51024 25.4342 17.7652 16.9584 21.0668C8.31893 24.4325 3.08826 11.4624 11.8894 7.96368ZM11.2596 0.376847C3.62331 1.96876 -1.25553 9.81127 0.283434 17.527C1.82518 25.2587 9.73179 30.3257 17.5346 28.6035C35.7318 24.5857 30.1507 -3.56217 11.2596 0.376847Z" fill="#FFFEFE"/>
</svg>
